<svg width="436" height="47" viewBox="0 0 436 47" fill="none" xmlns="http://www.w3.org/2000/svg">
<path d="M16.256 46.72C13.184 46.72 10.4106 46.0373 7.93596 44.672C5.50396 43.264 3.56262 41.344 2.11196 38.912C0.703956 36.48 -4.3869e-05 33.7493 -4.3869e-05 30.72C-4.3869e-05 27.6907 0.703956 24.9813 2.11196 22.592C3.51996 20.16 5.41862 18.24 7.80796 16.832C10.24 15.424 12.928 14.72 15.872 14.72C18.7306 14.72 21.248 15.3813 23.424 16.704C25.6426 18.0267 27.3706 19.84 28.608 22.144C29.888 24.448 30.528 27.072 30.528 30.016C30.528 30.528 30.4853 31.0613 30.4 31.616C30.3573 32.128 30.272 32.704 30.144 33.344H4.92796V27.584H26.496L23.872 29.888C23.7866 28.0107 23.424 26.432 22.784 25.152C22.144 23.872 21.2266 22.8907 20.032 22.208C18.88 21.5253 17.4506 21.184 15.744 21.184C13.952 21.184 12.3946 21.568 11.072 22.336C9.74929 23.104 8.72529 24.192 7.99996 25.6C7.27462 26.9653 6.91196 28.608 6.91196 30.528C6.91196 32.448 7.29596 34.1333 8.06396 35.584C8.83196 37.0347 9.91996 38.1653 11.328 38.976C12.736 39.744 14.3573 40.128 16.192 40.128C17.7706 40.128 19.2213 39.8507 20.544 39.296C21.9093 38.7413 23.0613 37.9307 24 36.864L28.48 41.408C26.9866 43.1573 25.1733 44.48 23.04 45.376C20.9066 46.272 18.6453 46.72 16.256 46.72ZM40.031 46.08V2.56H47.071V46.08H40.031ZM32.671 21.76V15.36H54.431V21.76H32.671ZM72.8155 46.72C69.7861 46.72 67.0341 46.016 64.5595 44.608C62.1275 43.2 60.2075 41.28 58.7995 38.848C57.3915 36.416 56.6875 33.7067 56.6875 30.72C56.6875 27.6907 57.3915 24.9813 58.7995 22.592C60.2075 20.16 62.1275 18.24 64.5595 16.832C67.0341 15.424 69.7861 14.72 72.8155 14.72C75.2048 14.72 77.4235 15.1893 79.4715 16.128C81.5621 17.024 83.3328 18.3253 84.7835 20.032L80.1755 24.704C79.2795 23.6373 78.1915 22.848 76.9115 22.336C75.6741 21.7813 74.3088 21.504 72.8155 21.504C71.0661 21.504 69.5088 21.9093 68.1435 22.72C66.8208 23.488 65.7755 24.5547 65.0075 25.92C64.2821 27.2853 63.9195 28.8853 63.9195 30.72C63.9195 32.512 64.2821 34.112 65.0075 35.52C65.7755 36.8853 66.8208 37.9733 68.1435 38.784C69.5088 39.552 71.0661 39.936 72.8155 39.936C74.3088 39.936 75.6741 39.68 76.9115 39.168C78.1915 38.6133 79.2795 37.8027 80.1755 36.736L84.7835 41.408C83.3328 43.1147 81.5621 44.4373 79.4715 45.376C77.4235 46.272 75.2048 46.72 72.8155 46.72ZM110.915 46.08V28.352C110.915 26.304 110.254 24.6187 108.931 23.296C107.651 21.9733 105.987 21.312 103.939 21.312C102.574 21.312 101.358 21.6107 100.291 22.208C99.2243 22.8053 98.3923 23.6373 97.795 24.704C97.1976 25.7707 96.899 26.9867 96.899 28.352L94.147 26.816C94.147 24.4693 94.659 22.4 95.683 20.608C96.707 18.7733 98.115 17.344 99.907 16.32C101.742 15.2533 103.79 14.72 106.051 14.72C108.355 14.72 110.403 15.232 112.195 16.256C113.987 17.28 115.395 18.7093 116.419 20.544C117.443 22.336 117.955 24.4267 117.955 26.816V46.08H110.915ZM89.859 46.08V0H96.899V46.08H89.859ZM139.381 46.72C136.309 46.72 133.536 46.0373 131.061 44.672C128.629 43.264 126.688 41.344 125.237 38.912C123.829 36.48 123.125 33.7493 123.125 30.72C123.125 27.6907 123.829 24.9813 125.237 22.592C126.645 20.16 128.544 18.24 130.933 16.832C133.365 15.424 136.053 14.72 138.997 14.72C141.856 14.72 144.373 15.3813 146.549 16.704C148.768 18.0267 150.496 19.84 151.733 22.144C153.013 24.448 153.653 27.072 153.653 30.016C153.653 30.528 153.61 31.0613 153.525 31.616C153.482 32.128 153.397 32.704 153.269 33.344H128.053V27.584H149.621L146.997 29.888C146.912 28.0107 146.549 26.432 145.909 25.152C145.269 23.872 144.352 22.8907 143.157 22.208C142.005 21.5253 140.576 21.184 138.869 21.184C137.077 21.184 135.52 21.568 134.197 22.336C132.874 23.104 131.85 24.192 131.125 25.6C130.4 26.9653 130.037 28.608 130.037 30.528C130.037 32.448 130.421 34.1333 131.189 35.584C131.957 37.0347 133.045 38.1653 134.453 38.976C135.861 39.744 137.482 40.128 139.317 40.128C140.896 40.128 142.346 39.8507 143.669 39.296C145.034 38.7413 146.186 37.9307 147.125 36.864L151.605 41.408C150.112 43.1573 148.298 44.48 146.165 45.376C144.032 46.272 141.77 46.72 139.381 46.72ZM175.744 46.72C173.398 46.72 171.307 46.2293 169.472 45.248C167.638 44.224 166.187 42.8373 165.12 41.088C164.096 39.3387 163.584 37.3547 163.584 35.136V26.304C163.584 24.0853 164.118 22.1013 165.184 20.352C166.251 18.6027 167.702 17.2373 169.536 16.256C171.371 15.232 173.44 14.72 175.744 14.72C178.518 14.72 181.014 15.4453 183.232 16.896C185.494 18.304 187.264 20.224 188.544 22.656C189.867 25.0453 190.528 27.7547 190.528 30.784C190.528 33.7707 189.867 36.48 188.544 38.912C187.264 41.3013 185.494 43.2 183.232 44.608C181.014 46.016 178.518 46.72 175.744 46.72ZM159.296 46.08V0H166.336V22.912L165.12 30.336L166.336 37.824V46.08H159.296ZM174.592 40.064C176.299 40.064 177.792 39.68 179.072 38.912C180.395 38.1013 181.419 36.992 182.144 35.584C182.912 34.176 183.296 32.5547 183.296 30.72C183.296 28.8853 182.912 27.264 182.144 25.856C181.419 24.448 180.395 23.36 179.072 22.592C177.792 21.7813 176.299 21.376 174.592 21.376C172.886 21.376 171.371 21.7813 170.048 22.592C168.726 23.36 167.702 24.448 166.976 25.856C166.251 27.264 165.888 28.8853 165.888 30.72C165.888 32.5547 166.251 34.176 166.976 35.584C167.702 36.992 168.726 38.1013 170.048 38.912C171.371 39.68 172.886 40.064 174.592 40.064ZM209.285 46.72C206.512 46.72 203.995 46.016 201.733 44.608C199.515 43.2 197.744 41.3013 196.421 38.912C195.141 36.48 194.501 33.7707 194.501 30.784C194.501 27.7547 195.141 25.0453 196.421 22.656C197.744 20.224 199.515 18.304 201.733 16.896C203.995 15.4453 206.512 14.72 209.285 14.72C211.632 14.72 213.701 15.232 215.493 16.256C217.328 17.2373 218.779 18.6027 219.845 20.352C220.912 22.1013 221.445 24.0853 221.445 26.304V35.136C221.445 37.3547 220.912 39.3387 219.845 41.088C218.821 42.8373 217.392 44.224 215.557 45.248C213.723 46.2293 211.632 46.72 209.285 46.72ZM210.437 40.064C213.04 40.064 215.131 39.1893 216.709 37.44C218.331 35.6907 219.141 33.4507 219.141 30.72C219.141 28.8853 218.779 27.264 218.053 25.856C217.328 24.448 216.304 23.36 214.981 22.592C213.701 21.7813 212.187 21.376 210.437 21.376C208.731 21.376 207.216 21.7813 205.893 22.592C204.613 23.36 203.589 24.448 202.821 25.856C202.096 27.264 201.733 28.8853 201.733 30.72C201.733 32.5547 202.096 34.176 202.821 35.584C203.589 36.992 204.613 38.1013 205.893 38.912C207.216 39.68 208.731 40.064 210.437 40.064ZM218.693 46.08V37.824L219.909 30.336L218.693 22.912V15.36H225.733V46.08H218.693ZM233.546 46.08V15.36H240.586V46.08H233.546ZM240.586 28.992L238.154 27.776C238.154 23.8933 239.008 20.7573 240.714 18.368C242.464 15.936 245.088 14.72 248.586 14.72C250.122 14.72 251.509 14.9973 252.746 15.552C253.984 16.1067 255.136 17.0027 256.202 18.24L251.594 22.976C251.04 22.3787 250.421 21.952 249.738 21.696C249.056 21.44 248.266 21.312 247.37 21.312C245.408 21.312 243.786 21.9307 242.506 23.168C241.226 24.4053 240.586 26.3467 240.586 28.992ZM280.665 46.08V28.352C280.665 26.304 280.004 24.6187 278.681 23.296C277.401 21.9733 275.737 21.312 273.689 21.312C272.324 21.312 271.108 21.6107 270.041 22.208C268.974 22.8053 268.142 23.6373 267.545 24.704C266.948 25.7707 266.649 26.9867 266.649 28.352L263.897 26.816C263.897 24.4693 264.409 22.4 265.433 20.608C266.457 18.7733 267.865 17.344 269.657 16.32C271.492 15.2533 273.54 14.72 275.801 14.72C278.105 14.72 280.153 15.3173 281.945 16.512C283.737 17.664 285.145 19.1787 286.169 21.056C287.193 22.8907 287.705 24.8107 287.705 26.816V46.08H280.665ZM259.609 46.08V15.36H266.649V46.08H259.609ZM309.131 46.72C306.059 46.72 303.286 46.0373 300.811 44.672C298.379 43.264 296.438 41.344 294.987 38.912C293.579 36.48 292.875 33.7493 292.875 30.72C292.875 27.6907 293.579 24.9813 294.987 22.592C296.395 20.16 298.294 18.24 300.683 16.832C303.115 15.424 305.803 14.72 308.747 14.72C311.606 14.72 314.123 15.3813 316.299 16.704C318.518 18.0267 320.246 19.84 321.483 22.144C322.763 24.448 323.403 27.072 323.403 30.016C323.403 30.528 323.36 31.0613 323.275 31.616C323.232 32.128 323.147 32.704 323.019 33.344H297.803V27.584H319.371L316.747 29.888C316.662 28.0107 316.299 26.432 315.659 25.152C315.019 23.872 314.102 22.8907 312.907 22.208C311.755 21.5253 310.326 21.184 308.619 21.184C306.827 21.184 305.27 21.568 303.947 22.336C302.624 23.104 301.6 24.192 300.875 25.6C300.15 26.9653 299.787 28.608 299.787 30.528C299.787 32.448 300.171 34.1333 300.939 35.584C301.707 37.0347 302.795 38.1653 304.203 38.976C305.611 39.744 307.232 40.128 309.067 40.128C310.646 40.128 312.096 39.8507 313.419 39.296C314.784 38.7413 315.936 37.9307 316.875 36.864L321.355 41.408C319.862 43.1573 318.048 44.48 315.915 45.376C313.782 46.272 311.52 46.72 309.131 46.72ZM334.422 46.72C333.057 46.72 331.926 46.272 331.03 45.376C330.177 44.4373 329.75 43.3067 329.75 41.984C329.75 40.6187 330.177 39.488 331.03 38.592C331.926 37.696 333.057 37.248 334.422 37.248C335.788 37.248 336.897 37.696 337.75 38.592C338.646 39.488 339.094 40.6187 339.094 41.984C339.094 43.3067 338.646 44.4373 337.75 45.376C336.897 46.272 335.788 46.72 334.422 46.72ZM368.665 46.08V28.352C368.665 26.304 368.004 24.6187 366.681 23.296C365.401 21.9733 363.737 21.312 361.689 21.312C360.324 21.312 359.108 21.6107 358.041 22.208C356.974 22.8053 356.142 23.6373 355.545 24.704C354.948 25.7707 354.649 26.9867 354.649 28.352L351.897 26.816C351.897 24.4693 352.409 22.4 353.433 20.608C354.457 18.7733 355.865 17.344 357.657 16.32C359.492 15.2533 361.54 14.72 363.801 14.72C366.105 14.72 368.153 15.3173 369.945 16.512C371.737 17.664 373.145 19.1787 374.169 21.056C375.193 22.8907 375.705 24.8107 375.705 26.816V46.08H368.665ZM347.609 46.08V15.36H354.649V46.08H347.609ZM397.131 46.72C394.059 46.72 391.286 46.0373 388.811 44.672C386.379 43.264 384.438 41.344 382.987 38.912C381.579 36.48 380.875 33.7493 380.875 30.72C380.875 27.6907 381.579 24.9813 382.987 22.592C384.395 20.16 386.294 18.24 388.683 16.832C391.115 15.424 393.803 14.72 396.747 14.72C399.606 14.72 402.123 15.3813 404.299 16.704C406.518 18.0267 408.246 19.84 409.483 22.144C410.763 24.448 411.403 27.072 411.403 30.016C411.403 30.528 411.36 31.0613 411.275 31.616C411.232 32.128 411.147 32.704 411.019 33.344H385.803V27.584H407.371L404.747 29.888C404.662 28.0107 404.299 26.432 403.659 25.152C403.019 23.872 402.102 22.8907 400.907 22.208C399.755 21.5253 398.326 21.184 396.619 21.184C394.827 21.184 393.27 21.568 391.947 22.336C390.624 23.104 389.6 24.192 388.875 25.6C388.15 26.9653 387.787 28.608 387.787 30.528C387.787 32.448 388.171 34.1333 388.939 35.584C389.707 37.0347 390.795 38.1653 392.203 38.976C393.611 39.744 395.232 40.128 397.067 40.128C398.646 40.128 400.096 39.8507 401.419 39.296C402.784 38.7413 403.936 37.9307 404.875 36.864L409.355 41.408C407.862 43.1573 406.048 44.48 403.915 45.376C401.782 46.272 399.52 46.72 397.131 46.72ZM420.906 46.08V2.56H427.946V46.08H420.906ZM413.546 21.76V15.36H435.306V21.76H413.546Z" fill="white"/>
</svg>
