<svg width="563" height="86" viewBox="0 0 563 86" fill="none" xmlns="http://www.w3.org/2000/svg">
<path d="M8.02667 50.552L103.187 21L95.6187 36.3653L0 66.376L8.02667 50.552Z" fill="white"/>
<path fill-rule="evenodd" clip-rule="evenodd" d="M26.1716 50.8594C29.4762 62.2822 40.0122 70.6347 52.4998 70.6348C62.2682 70.6348 70.8411 65.5226 75.6941 57.8291L94.8201 51.8271C90.7485 71.3409 73.4518 86 52.7292 86C33.3631 86 16.9894 73.1969 11.6052 55.5938L26.1716 50.8594ZM52.7292 0C74.2808 0 92.1283 15.855 95.2458 36.5371L79.8376 41.3223C78.8584 27.0765 66.9942 15.8242 52.4998 15.8242C39.8494 15.8243 29.2024 24.396 26.0466 36.0479L9.76929 41.1992C10.7133 18.2862 29.5843 0 52.7292 0Z" fill="white"/>
<path d="M141.644 67.14C138.572 67.14 135.799 66.4573 133.324 65.092C130.892 63.684 128.951 61.764 127.5 59.332C126.092 56.9 125.388 54.1693 125.388 51.14C125.388 48.1107 126.092 45.4013 127.5 43.012C128.908 40.58 130.807 38.66 133.196 37.252C135.628 35.844 138.316 35.14 141.26 35.14C144.119 35.14 146.636 35.8013 148.812 37.124C151.031 38.4467 152.759 40.26 153.996 42.564C155.276 44.868 155.916 47.492 155.916 50.436C155.916 50.948 155.873 51.4813 155.788 52.036C155.745 52.548 155.66 53.124 155.532 53.764H130.316V48.004H151.884L149.26 50.308C149.175 48.4307 148.812 46.852 148.172 45.572C147.532 44.292 146.615 43.3107 145.42 42.628C144.268 41.9453 142.839 41.604 141.132 41.604C139.34 41.604 137.783 41.988 136.46 42.756C135.137 43.524 134.113 44.612 133.388 46.02C132.663 47.3853 132.3 49.028 132.3 50.948C132.3 52.868 132.684 54.5533 133.452 56.004C134.22 57.4547 135.308 58.5853 136.716 59.396C138.124 60.164 139.745 60.548 141.58 60.548C143.159 60.548 144.609 60.2707 145.932 59.716C147.297 59.1613 148.449 58.3507 149.388 57.284L153.868 61.828C152.375 63.5773 150.561 64.9 148.428 65.796C146.295 66.692 144.033 67.14 141.644 67.14ZM165.419 66.5V22.98H172.459V66.5H165.419ZM158.059 42.18V35.78H179.819V42.18H158.059ZM198.203 67.14C195.174 67.14 192.422 66.436 189.947 65.028C187.515 63.62 185.595 61.7 184.187 59.268C182.779 56.836 182.075 54.1267 182.075 51.14C182.075 48.1107 182.779 45.4013 184.187 43.012C185.595 40.58 187.515 38.66 189.947 37.252C192.422 35.844 195.174 35.14 198.203 35.14C200.593 35.14 202.811 35.6093 204.859 36.548C206.95 37.444 208.721 38.7453 210.171 40.452L205.563 45.124C204.667 44.0573 203.579 43.268 202.299 42.756C201.062 42.2013 199.697 41.924 198.203 41.924C196.454 41.924 194.897 42.3293 193.531 43.14C192.209 43.908 191.163 44.9747 190.395 46.34C189.67 47.7053 189.307 49.3053 189.307 51.14C189.307 52.932 189.67 54.532 190.395 55.94C191.163 57.3053 192.209 58.3933 193.531 59.204C194.897 59.972 196.454 60.356 198.203 60.356C199.697 60.356 201.062 60.1 202.299 59.588C203.579 59.0333 204.667 58.2227 205.563 57.156L210.171 61.828C208.721 63.5347 206.95 64.8573 204.859 65.796C202.811 66.692 200.593 67.14 198.203 67.14ZM236.303 66.5V48.772C236.303 46.724 235.642 45.0387 234.319 43.716C233.039 42.3933 231.375 41.732 229.327 41.732C227.962 41.732 226.746 42.0307 225.679 42.628C224.612 43.2253 223.78 44.0573 223.183 45.124C222.586 46.1907 222.287 47.4067 222.287 48.772L219.535 47.236C219.535 44.8893 220.047 42.82 221.071 41.028C222.095 39.1933 223.503 37.764 225.295 36.74C227.13 35.6733 229.178 35.14 231.439 35.14C233.743 35.14 235.791 35.652 237.583 36.676C239.375 37.7 240.783 39.1293 241.807 40.964C242.831 42.756 243.343 44.8467 243.343 47.236V66.5H236.303ZM215.247 66.5V20.42H222.287V66.5H215.247ZM264.769 67.14C261.697 67.14 258.924 66.4573 256.449 65.092C254.017 63.684 252.076 61.764 250.625 59.332C249.217 56.9 248.513 54.1693 248.513 51.14C248.513 48.1107 249.217 45.4013 250.625 43.012C252.033 40.58 253.932 38.66 256.321 37.252C258.753 35.844 261.441 35.14 264.385 35.14C267.244 35.14 269.761 35.8013 271.937 37.124C274.156 38.4467 275.884 40.26 277.121 42.564C278.401 44.868 279.041 47.492 279.041 50.436C279.041 50.948 278.998 51.4813 278.913 52.036C278.87 52.548 278.785 53.124 278.657 53.764H253.441V48.004H275.009L272.385 50.308C272.3 48.4307 271.937 46.852 271.297 45.572C270.657 44.292 269.74 43.3107 268.545 42.628C267.393 41.9453 265.964 41.604 264.257 41.604C262.465 41.604 260.908 41.988 259.585 42.756C258.262 43.524 257.238 44.612 256.513 46.02C255.788 47.3853 255.425 49.028 255.425 50.948C255.425 52.868 255.809 54.5533 256.577 56.004C257.345 57.4547 258.433 58.5853 259.841 59.396C261.249 60.164 262.87 60.548 264.705 60.548C266.284 60.548 267.734 60.2707 269.057 59.716C270.422 59.1613 271.574 58.3507 272.513 57.284L276.993 61.828C275.5 63.5773 273.686 64.9 271.553 65.796C269.42 66.692 267.158 67.14 264.769 67.14ZM301.132 67.14C298.786 67.14 296.695 66.6493 294.86 65.668C293.026 64.644 291.575 63.2573 290.508 61.508C289.484 59.7587 288.972 57.7747 288.972 55.556V46.724C288.972 44.5053 289.506 42.5213 290.572 40.772C291.639 39.0227 293.09 37.6573 294.924 36.676C296.759 35.652 298.828 35.14 301.132 35.14C303.906 35.14 306.402 35.8653 308.62 37.316C310.882 38.724 312.652 40.644 313.932 43.076C315.255 45.4653 315.916 48.1747 315.916 51.204C315.916 54.1907 315.255 56.9 313.932 59.332C312.652 61.7213 310.882 63.62 308.62 65.028C306.402 66.436 303.906 67.14 301.132 67.14ZM284.684 66.5V20.42H291.724V43.332L290.508 50.756L291.724 58.244V66.5H284.684ZM299.98 60.484C301.687 60.484 303.18 60.1 304.46 59.332C305.783 58.5213 306.807 57.412 307.532 56.004C308.3 54.596 308.684 52.9747 308.684 51.14C308.684 49.3053 308.3 47.684 307.532 46.276C306.807 44.868 305.783 43.78 304.46 43.012C303.18 42.2013 301.687 41.796 299.98 41.796C298.274 41.796 296.759 42.2013 295.436 43.012C294.114 43.78 293.09 44.868 292.364 46.276C291.639 47.684 291.276 49.3053 291.276 51.14C291.276 52.9747 291.639 54.596 292.364 56.004C293.09 57.412 294.114 58.5213 295.436 59.332C296.759 60.1 298.274 60.484 299.98 60.484ZM334.673 67.14C331.9 67.14 329.383 66.436 327.121 65.028C324.903 63.62 323.132 61.7213 321.809 59.332C320.529 56.9 319.889 54.1907 319.889 51.204C319.889 48.1747 320.529 45.4653 321.809 43.076C323.132 40.644 324.903 38.724 327.121 37.316C329.383 35.8653 331.9 35.14 334.673 35.14C337.02 35.14 339.089 35.652 340.881 36.676C342.716 37.6573 344.167 39.0227 345.233 40.772C346.3 42.5213 346.833 44.5053 346.833 46.724V55.556C346.833 57.7747 346.3 59.7587 345.233 61.508C344.209 63.2573 342.78 64.644 340.945 65.668C339.111 66.6493 337.02 67.14 334.673 67.14ZM335.825 60.484C338.428 60.484 340.519 59.6093 342.097 57.86C343.719 56.1107 344.529 53.8707 344.529 51.14C344.529 49.3053 344.167 47.684 343.441 46.276C342.716 44.868 341.692 43.78 340.369 43.012C339.089 42.2013 337.575 41.796 335.825 41.796C334.119 41.796 332.604 42.2013 331.281 43.012C330.001 43.78 328.977 44.868 328.209 46.276C327.484 47.684 327.121 49.3053 327.121 51.14C327.121 52.9747 327.484 54.596 328.209 56.004C328.977 57.412 330.001 58.5213 331.281 59.332C332.604 60.1 334.119 60.484 335.825 60.484ZM344.081 66.5V58.244L345.297 50.756L344.081 43.332V35.78H351.121V66.5H344.081ZM358.934 66.5V35.78H365.974V66.5H358.934ZM365.974 49.412L363.542 48.196C363.542 44.3133 364.396 41.1773 366.102 38.788C367.852 36.356 370.476 35.14 373.974 35.14C375.51 35.14 376.897 35.4173 378.134 35.972C379.372 36.5267 380.524 37.4227 381.59 38.66L376.982 43.396C376.428 42.7987 375.809 42.372 375.126 42.116C374.444 41.86 373.654 41.732 372.758 41.732C370.796 41.732 369.174 42.3507 367.894 43.588C366.614 44.8253 365.974 46.7667 365.974 49.412ZM406.053 66.5V48.772C406.053 46.724 405.392 45.0387 404.069 43.716C402.789 42.3933 401.125 41.732 399.077 41.732C397.712 41.732 396.496 42.0307 395.429 42.628C394.362 43.2253 393.53 44.0573 392.933 45.124C392.336 46.1907 392.037 47.4067 392.037 48.772L389.285 47.236C389.285 44.8893 389.797 42.82 390.821 41.028C391.845 39.1933 393.253 37.764 395.045 36.74C396.88 35.6733 398.928 35.14 401.189 35.14C403.493 35.14 405.541 35.7373 407.333 36.932C409.125 38.084 410.533 39.5987 411.557 41.476C412.581 43.3107 413.093 45.2307 413.093 47.236V66.5H406.053ZM384.997 66.5V35.78H392.037V66.5H384.997ZM434.519 67.14C431.447 67.14 428.674 66.4573 426.199 65.092C423.767 63.684 421.826 61.764 420.375 59.332C418.967 56.9 418.263 54.1693 418.263 51.14C418.263 48.1107 418.967 45.4013 420.375 43.012C421.783 40.58 423.682 38.66 426.071 37.252C428.503 35.844 431.191 35.14 434.135 35.14C436.994 35.14 439.511 35.8013 441.687 37.124C443.906 38.4467 445.634 40.26 446.871 42.564C448.151 44.868 448.791 47.492 448.791 50.436C448.791 50.948 448.748 51.4813 448.663 52.036C448.62 52.548 448.535 53.124 448.407 53.764H423.191V48.004H444.759L442.135 50.308C442.05 48.4307 441.687 46.852 441.047 45.572C440.407 44.292 439.49 43.3107 438.295 42.628C437.143 41.9453 435.714 41.604 434.007 41.604C432.215 41.604 430.658 41.988 429.335 42.756C428.012 43.524 426.988 44.612 426.263 46.02C425.538 47.3853 425.175 49.028 425.175 50.948C425.175 52.868 425.559 54.5533 426.327 56.004C427.095 57.4547 428.183 58.5853 429.591 59.396C430.999 60.164 432.62 60.548 434.455 60.548C436.034 60.548 437.484 60.2707 438.807 59.716C440.172 59.1613 441.324 58.3507 442.263 57.284L446.743 61.828C445.25 63.5773 443.436 64.9 441.303 65.796C439.17 66.692 436.908 67.14 434.519 67.14ZM459.81 67.14C458.445 67.14 457.314 66.692 456.418 65.796C455.565 64.8573 455.138 63.7267 455.138 62.404C455.138 61.0387 455.565 59.908 456.418 59.012C457.314 58.116 458.445 57.668 459.81 57.668C461.176 57.668 462.285 58.116 463.138 59.012C464.034 59.908 464.482 61.0387 464.482 62.404C464.482 63.7267 464.034 64.8573 463.138 65.796C462.285 66.692 461.176 67.14 459.81 67.14ZM494.053 66.5V48.772C494.053 46.724 493.392 45.0387 492.069 43.716C490.789 42.3933 489.125 41.732 487.077 41.732C485.712 41.732 484.496 42.0307 483.429 42.628C482.362 43.2253 481.53 44.0573 480.933 45.124C480.336 46.1907 480.037 47.4067 480.037 48.772L477.285 47.236C477.285 44.8893 477.797 42.82 478.821 41.028C479.845 39.1933 481.253 37.764 483.045 36.74C484.88 35.6733 486.928 35.14 489.189 35.14C491.493 35.14 493.541 35.7373 495.333 36.932C497.125 38.084 498.533 39.5987 499.557 41.476C500.581 43.3107 501.093 45.2307 501.093 47.236V66.5H494.053ZM472.997 66.5V35.78H480.037V66.5H472.997ZM522.519 67.14C519.447 67.14 516.674 66.4573 514.199 65.092C511.767 63.684 509.826 61.764 508.375 59.332C506.967 56.9 506.263 54.1693 506.263 51.14C506.263 48.1107 506.967 45.4013 508.375 43.012C509.783 40.58 511.682 38.66 514.071 37.252C516.503 35.844 519.191 35.14 522.135 35.14C524.994 35.14 527.511 35.8013 529.687 37.124C531.906 38.4467 533.634 40.26 534.871 42.564C536.151 44.868 536.791 47.492 536.791 50.436C536.791 50.948 536.748 51.4813 536.663 52.036C536.62 52.548 536.535 53.124 536.407 53.764H511.191V48.004H532.759L530.135 50.308C530.05 48.4307 529.687 46.852 529.047 45.572C528.407 44.292 527.49 43.3107 526.295 42.628C525.143 41.9453 523.714 41.604 522.007 41.604C520.215 41.604 518.658 41.988 517.335 42.756C516.012 43.524 514.988 44.612 514.263 46.02C513.538 47.3853 513.175 49.028 513.175 50.948C513.175 52.868 513.559 54.5533 514.327 56.004C515.095 57.4547 516.183 58.5853 517.591 59.396C518.999 60.164 520.62 60.548 522.455 60.548C524.034 60.548 525.484 60.2707 526.807 59.716C528.172 59.1613 529.324 58.3507 530.263 57.284L534.743 61.828C533.25 63.5773 531.436 64.9 529.303 65.796C527.17 66.692 524.908 67.14 522.519 67.14ZM546.294 66.5V22.98H553.334V66.5H546.294ZM538.934 42.18V35.78H560.694V42.18H538.934Z" fill="white"/>
</svg>
