<svg width="544" height="453" viewBox="0 0 544 453" fill="none" xmlns="http://www.w3.org/2000/svg">
<path d="M42.28 266.28L543.53 110.616L503.666 191.552L0 349.632L42.28 266.28Z" fill="white"/>
<path d="M146.909 291.294C170.421 339.135 219.633 372.064 276.539 372.064C324.711 372.064 367.369 348.468 393.592 312.204L459.331 361.909C418.032 417.202 352.071 453 277.748 453C184.584 453 104.558 396.752 69.7756 316.363L146.909 291.294ZM277.748 0C385.23 0 475.225 74.8643 498.435 175.292L416.039 190.452C399.612 128.784 343.382 83.3516 276.539 83.3516C200.179 83.3518 137.669 142.642 132.528 217.697L51.8567 243.227C51.4536 237.704 51.2483 232.126 51.2483 226.5C51.2483 101.408 152.656 0 277.748 0Z" fill="white"/>
</svg>
